<?xml version="1.0" standalone="no"?>
<!DOCTYPE svg PUBLIC "-//W3C//DTD SVG 20010904//EN"
 "http://www.w3.org/TR/2001/REC-SVG-20010904/DTD/svg10.dtd">
<svg version="1.0" xmlns="http://www.w3.org/2000/svg"
 width="2642.000000pt" height="3113.000000pt" viewBox="0 0 2642.000000 3113.000000"
 preserveAspectRatio="xMidYMid meet">

<g transform="translate(0.000000,3113.000000) scale(0.100000,-0.100000)"
fill="#000000" stroke="none">
<path d="M15135 24086 c-39 -12 -111 -41 -160 -64 -50 -22 -137 -53 -195 -67
-205 -50 -235 -59 -301 -92 -64 -32 -106 -71 -188 -173 -22 -27 -54 -52 -90
-68 -31 -14 -90 -45 -132 -69 -42 -23 -82 -43 -90 -43 -8 0 -118 31 -244 69
-364 110 -412 120 -755 161 -251 30 -394 28 -620 -9 -102 -16 -255 -35 -340
-41 -190 -13 -309 -32 -454 -70 -147 -38 -283 -57 -501 -70 -263 -15 -384 -38
-594 -115 -84 -30 -135 -30 -313 6 -199 39 -318 89 -609 255 -227 129 -356
173 -467 160 -128 -15 -210 -86 -231 -201 -13 -68 3 -137 62 -263 78 -167 88
-207 107 -425 16 -187 15 -306 -5 -372 -40 -138 -118 -256 -263 -397 -92 -90
-102 -103 -132 -180 -35 -90 -48 -115 -121 -228 -73 -114 -92 -183 -86 -305 6
-118 25 -179 90 -284 55 -88 71 -156 64 -267 -5 -93 -28 -153 -88 -230 -76
-99 -97 -203 -64 -324 21 -77 19 -185 -4 -235 -10 -22 -44 -69 -75 -105 -126
-143 -164 -221 -195 -402 -11 -61 -24 -115 -29 -120 -6 -6 -43 3 -98 25 -49
20 -120 41 -159 48 -97 16 -431 6 -502 -16 -89 -27 -78 -39 28 -31 269 18 305
19 402 2 105 -18 236 -57 277 -82 l25 -15 -30 6 c-16 3 -100 8 -185 12 -117 4
-182 2 -265 -11 -196 -29 -447 -97 -474 -130 -7 -9 21 -5 92 11 386 87 676
105 844 52 35 -11 51 -42 34 -63 -7 -8 -48 -16 -108 -20 -126 -8 -266 -32
-370 -62 -81 -23 -287 -113 -279 -121 2 -3 87 16 188 41 100 24 221 52 267 60
86 17 227 20 271 6 l25 -7 -30 -7 c-389 -92 -571 -167 -824 -339 -85 -58 -101
-73 -83 -75 14 -2 61 18 120 51 207 117 428 211 637 271 185 53 193 53 205 21
7 -18 7 -32 0 -45 -6 -10 -70 -48 -143 -83 -72 -35 -179 -95 -237 -134 -133
-88 -348 -255 -378 -294 -40 -49 -12 -37 133 61 150 101 242 157 435 265 128
71 178 95 189 88 8 -5 22 -38 31 -74 9 -35 24 -78 33 -96 9 -18 17 -42 17 -53
0 -23 -29 -80 -41 -80 -4 0 -32 -30 -62 -67 -54 -67 -111 -161 -143 -238 l-16
-40 22 20 c12 11 49 60 82 108 70 104 177 217 205 217 13 0 31 -16 48 -41 63
-95 167 -185 282 -243 29 -14 59 -36 67 -49 8 -12 26 -67 40 -122 40 -158 74
-250 144 -390 66 -134 128 -234 179 -294 25 -29 32 -32 50 -23 19 11 21 22 26
229 6 226 16 307 42 333 11 11 37 15 98 14 70 0 94 -5 161 -33 73 -30 83 -32
152 -26 l74 7 101 -98 c207 -202 365 -418 484 -657 97 -195 107 -248 125 -685
11 -238 23 -333 59 -436 11 -32 18 -63 15 -68 -9 -14 -97 -3 -166 21 -30 10
-99 46 -152 80 -125 79 -132 82 -150 75 -22 -8 -20 -52 5 -120 24 -65 180
-265 280 -360 77 -73 139 -111 238 -144 l74 -25 14 -55 c25 -103 83 -193 218
-338 151 -163 320 -258 525 -298 43 -8 169 -17 295 -20 180 -5 234 -3 295 10
213 46 418 216 530 442 23 48 62 150 87 228 25 77 65 204 89 281 98 306 332
687 463 754 119 61 280 22 407 -101 139 -134 187 -329 125 -510 -21 -62 -63
-139 -86 -158 -26 -22 -17 -33 23 -25 139 25 241 148 276 334 l12 64 17 -27
c20 -30 42 -33 68 -10 16 15 45 121 65 239 6 37 7 38 17 18 14 -31 -23 -247
-63 -365 -37 -109 -97 -233 -148 -305 -20 -29 -54 -77 -75 -107 -22 -29 -37
-62 -35 -72 5 -27 146 110 207 202 57 85 186 335 231 449 39 99 70 225 70 290
0 49 20 95 41 95 15 0 11 -34 -21 -192 -31 -148 -32 -180 -4 -157 19 16 79
212 100 324 16 88 33 141 34 103 0 -9 -7 -49 -15 -89 -9 -40 -12 -76 -7 -81 4
-4 27 1 50 12 l43 21 -7 48 c-7 53 8 76 30 45 15 -20 31 -13 39 18 10 41 46
133 46 121 1 -16 37 -17 47 -2 4 7 6 134 5 283 -1 149 3 285 7 301 l9 30 18
-40 c16 -37 17 -53 5 -210 -15 -204 -15 -214 -1 -228 15 -15 31 7 31 44 0 14
9 43 20 66 35 73 42 157 25 309 -18 167 -19 154 4 154 17 0 19 -10 23 -100 2
-75 7 -103 18 -110 30 -19 40 9 40 114 0 80 5 109 20 141 l20 40 -3 -160 c-2
-157 -2 -160 19 -163 33 -5 43 39 33 134 -13 131 -11 219 8 258 32 68 40 53
45 -80 4 -129 16 -166 38 -123 13 24 16 295 5 367 l-6 37 25 -28 c26 -28 26
-30 26 -192 0 -166 6 -193 36 -163 9 9 16 48 21 110 l6 95 29 -33 c28 -32 29
-37 23 -97 -6 -52 -4 -67 10 -80 22 -23 51 -7 60 32 4 21 15 33 36 40 34 12
34 -6 9 236 -10 104 -17 191 -16 193 2 1 16 -14 31 -34 28 -36 28 -41 33 -191
4 -142 6 -153 24 -153 31 0 40 45 36 176 -4 113 -3 121 13 111 19 -12 29 -49
29 -106 0 -20 7 -47 16 -59 32 -47 36 -27 29 141 l-7 162 25 -23 c18 -18 26
-38 31 -82 8 -68 30 -97 40 -53 14 63 18 261 7 328 -16 96 -109 432 -132 476
-28 55 -136 149 -235 203 -49 27 -103 60 -121 73 -17 12 -36 23 -42 23 -14 0
-32 -36 -26 -52 3 -7 46 -40 96 -72 80 -53 130 -99 118 -110 -2 -2 -40 22 -83
54 -102 74 -197 125 -219 117 -33 -13 -19 -45 31 -71 49 -25 193 -125 226
-157 18 -16 18 -19 4 -24 -11 -4 -44 12 -90 43 -103 70 -135 85 -155 73 -14
-7 -9 -14 32 -42 67 -46 103 -81 87 -87 -7 -2 -29 6 -50 17 -105 59 -122 65
-134 53 -10 -10 -3 -22 35 -56 26 -24 47 -47 47 -50 0 -3 -17 1 -37 9 -37 16
-63 14 -63 -4 0 -5 27 -31 60 -56 33 -25 65 -55 71 -67 10 -18 7 -18 -33 6
-69 43 -156 86 -173 86 -8 0 -15 -8 -15 -17 1 -12 25 -29 77 -53 101 -46 163
-86 163 -105 0 -25 -25 -17 -117 36 -70 41 -99 52 -143 56 -47 3 -52 2 -36 -9
10 -7 41 -30 70 -50 28 -20 88 -62 134 -93 45 -31 82 -60 82 -63 0 -4 -4 -13
-9 -21 -8 -12 -28 -1 -103 56 -51 39 -112 82 -135 97 -93 57 -118 12 -27 -48
31 -21 53 -40 50 -43 -2 -3 -26 2 -52 11 -87 29 -95 21 -34 -34 30 -27 52 -50
48 -50 -4 0 -35 14 -67 31 -60 31 -91 33 -91 5 0 -9 12 -22 28 -30 27 -14 71
-56 58 -56 -4 0 -41 19 -82 41 -71 39 -77 41 -92 25 -19 -19 -18 -20 72 -89
50 -39 39 -44 -23 -13 -57 29 -83 32 -101 12 -9 -12 -2 -22 44 -58 30 -23 53
-44 51 -46 -6 -6 -80 36 -99 57 -23 25 -39 27 -57 5 -11 -13 -2 -26 67 -91 74
-71 71 -74 -18 -15 -44 29 -78 23 -78 -14 0 -17 11 -31 41 -50 53 -33 45 -40
-15 -13 -81 35 -108 0 -33 -44 23 -14 51 -34 61 -46 19 -21 19 -21 0 -21 -10
0 -37 12 -59 25 -22 14 -53 25 -69 25 -25 0 -27 -2 -15 -17 8 -9 44 -36 81
-60 68 -44 128 -97 128 -114 0 -19 -24 -7 -73 37 -107 96 -241 132 -152 41 19
-20 35 -41 35 -47 0 -13 5 -14 -65 15 -33 13 -80 25 -105 25 l-45 0 46 -28
c25 -15 59 -37 75 -50 l29 -23 -35 5 c-19 3 -63 12 -98 22 -86 23 -99 9 -35
-42 26 -21 53 -42 58 -47 6 -5 -17 3 -50 18 -98 44 -107 47 -118 36 -16 -16 1
-41 38 -57 32 -13 44 -32 29 -46 -3 -4 -27 5 -52 18 -53 27 -120 39 -141 25
-20 -13 -8 -26 59 -63 101 -55 72 -67 -42 -17 -72 31 -118 33 -118 4 0 -17 38
-45 61 -45 9 0 22 -7 29 -15 16 -20 1 -20 -64 0 -27 8 -60 15 -73 15 -31 0
-43 -30 -18 -44 10 -6 30 -21 44 -33 24 -20 24 -22 8 -29 -10 -4 -35 -2 -54 4
-25 8 -42 8 -55 1 -28 -15 -18 -43 17 -49 16 -3 27 -9 24 -15 -5 -11 -32 -12
-70 -1 -18 5 -31 3 -42 -9 -15 -15 -15 -18 -1 -40 14 -22 14 -25 -5 -44 -18
-18 -29 -20 -79 -15 -45 5 -60 3 -70 -9 -11 -13 -11 -20 0 -37 12 -20 10 -24
-11 -38 -13 -9 -52 -60 -87 -113 -39 -62 -107 -143 -186 -225 -86 -89 -148
-165 -200 -244 -83 -127 -108 -153 -135 -148 -16 3 -18 17 -21 142 -3 171 14
279 69 436 23 63 61 180 86 260 40 132 100 284 197 506 59 133 78 221 79 364
2 285 -83 465 -347 738 -186 192 -279 248 -508 306 -75 20 -152 42 -170 50
l-33 14 45 1 c25 0 63 -7 85 -16 36 -14 161 -45 243 -60 25 -4 32 -2 32 10 0
18 -29 37 -57 37 -10 1 -31 7 -48 15 -27 14 -14 15 145 11 96 -3 282 -16 414
-31 131 -14 245 -25 255 -24 29 1 -92 39 -189 59 -52 10 -180 29 -285 40 -104
12 -201 25 -215 30 -15 5 105 9 291 9 397 1 625 -19 968 -84 130 -24 311 -44
301 -32 -9 9 -299 73 -485 107 -216 39 -481 75 -705 95 -329 31 -946 30 -1260
-1 -80 -7 3 13 120 30 265 39 319 41 446 21 115 -18 126 -18 314 -1 287 25
444 34 749 42 150 4 267 10 260 15 -23 12 -357 38 -599 46 -139 4 -212 9 -190
14 68 14 338 39 595 54 386 22 407 24 403 44 -4 19 23 19 -468 3 -417 -14
-575 -24 -923 -58 -142 -14 -261 -24 -263 -22 -17 17 604 108 839 123 76 5
107 11 107 20 0 43 -504 11 -1007 -65 -196 -29 -251 -35 -242 -26 12 13 199
59 399 100 236 48 300 63 300 73 0 15 -361 -25 -567 -63 -151 -27 -163 -28
-108 -8 70 26 342 92 600 144 138 28 336 69 440 90 105 22 237 44 295 50 179
18 405 51 414 61 19 18 -9 27 -64 19 -30 -5 -93 -9 -140 -9 -48 -1 -172 -16
-285 -36 -756 -130 -979 -171 -1119 -206 -75 -18 -125 -24 -115 -14 16 16 542
157 779 210 125 27 145 34 105 34 -141 1 -487 -57 -775 -131 -236 -61 -247
-63 -237 -52 5 5 119 48 255 95 135 48 248 91 250 98 10 30 -150 -3 -357 -74
-104 -35 -164 -44 -175 -26 -4 5 29 21 71 35 87 30 121 50 103 61 -24 15 -110
6 -198 -20 -127 -37 -173 -30 -55 9 93 31 120 47 109 65 -11 17 -67 13 -131
-9 -32 -11 -62 -20 -67 -20 -17 0 -7 17 17 28 19 9 25 19 25 42 0 24 8 35 40
55 22 14 40 27 40 30 0 3 -23 17 -52 31 l-52 27 -121 -17 c-66 -10 -139 -26
-162 -36 -134 -59 -68 -240 129 -358 44 -26 93 -63 109 -84 74 -92 105 -223
64 -268 -23 -26 -311 -222 -367 -251 -37 -19 -52 -49 -23 -49 7 0 40 7 72 15
37 10 147 19 308 25 317 12 361 12 349 1 -5 -5 -103 -14 -217 -18 -249 -11
-238 -5 -287 -158 -17 -54 -40 -116 -51 -137 -39 -76 -27 -84 147 -98 160 -12
664 -101 759 -133 162 -56 302 -142 416 -256 135 -136 194 -245 224 -416 19
-112 20 -341 1 -425 -14 -61 -14 -67 5 -92 10 -15 19 -36 19 -47 0 -30 -63
-193 -174 -450 -124 -287 -158 -391 -190 -578 -15 -83 -40 -200 -57 -260 -62
-218 -116 -478 -144 -684 -36 -272 -84 -355 -253 -435 -40 -19 -113 -48 -161
-64 -191 -64 -361 -24 -361 86 0 40 21 58 100 84 36 11 124 50 196 85 152 75
201 119 260 236 94 188 146 362 179 603 53 393 82 509 192 781 133 326 181
460 213 585 17 63 39 147 49 185 35 123 23 258 -36 415 -99 262 -254 410 -548
521 -236 89 -293 94 -535 44 -69 -14 -226 -39 -350 -56 -124 -16 -234 -32
-245 -35 -11 -2 -164 -23 -340 -46 -299 -38 -340 -41 -628 -45 -327 -5 -406 1
-481 39 -85 42 -132 107 -121 165 3 18 33 82 66 141 33 59 69 132 80 162 24
65 40 80 88 80 108 1 231 130 349 366 23 45 64 108 92 140 28 32 71 100 97
153 26 52 85 147 132 210 171 230 165 221 149 237 -38 38 -183 -59 -318 -212
-149 -171 -234 -259 -257 -268 -17 -7 -35 -3 -77 17 -122 60 -224 59 -462 -4
-208 -55 -248 -61 -389 -56 -99 4 -147 10 -200 28 -39 13 -99 23 -136 24 -37
2 -72 6 -79 10 -18 11 -4 50 49 128 55 81 83 134 101 192 30 97 107 291 164
415 34 74 73 159 86 187 24 55 100 127 231 220 67 48 168 83 239 83 78 0 78
31 -1 79 -56 35 -109 109 -140 195 -11 32 -34 124 -50 205 -34 161 -33 198 2
331 25 92 49 134 133 229 76 86 107 144 114 215 l5 50 -24 -15 c-13 -9 -44
-52 -69 -95 -25 -44 -76 -120 -113 -171 -102 -138 -133 -229 -157 -453 -18
-177 -64 -278 -135 -296 -68 -17 -212 41 -285 116 -75 77 -80 104 -40 236 18
60 36 116 41 125 4 8 24 71 44 138 58 197 88 254 184 337 l44 39 -5 -27 c-12
-63 52 -9 97 80 30 62 46 63 21 3 -17 -43 -13 -71 10 -71 19 0 50 52 75 128
19 57 75 140 86 128 6 -6 -24 -118 -47 -168 -20 -46 -18 -76 10 -128 l13 -23
13 24 c7 13 13 49 14 79 0 72 23 108 125 197 91 80 209 203 268 281 22 28 41
52 43 52 2 0 15 -5 29 -12 24 -11 30 -8 93 53 81 78 122 114 122 108 0 -3 -18
-29 -40 -59 -22 -29 -38 -55 -36 -57 11 -11 79 38 156 111 47 45 76 71 66 58
-33 -39 -11 -34 75 17 85 50 106 56 76 23 -10 -10 -17 -24 -17 -31 0 -16 44
10 178 106 112 79 139 94 70 37 -50 -42 -78 -75 -72 -86 3 -5 14 -3 25 2 36
20 19 -3 -73 -94 -141 -139 -348 -399 -448 -561 -70 -114 -130 -250 -186 -420
-29 -88 -69 -203 -90 -255 -31 -81 -38 -110 -42 -196 -11 -241 52 -371 203
-414 56 -16 84 -10 109 23 26 35 16 54 -39 73 -64 21 -85 53 -85 129 0 35 5
76 12 92 6 15 14 97 17 180 l6 153 107 207 c58 115 145 296 193 403 95 212
145 292 227 361 75 65 180 140 186 135 2 -3 0 -19 -6 -35 -6 -17 -8 -32 -4
-35 9 -5 130 92 287 231 148 132 237 193 345 239 43 18 113 55 155 82 l76 49
36 -33 c42 -38 44 -34 -52 -99 -38 -26 -61 -44 -50 -40 11 5 92 34 180 65 88
32 196 76 240 99 94 48 113 52 65 10 l-35 -30 40 7 c33 6 106 25 220 58 11 4
-62 -34 -162 -83 -251 -123 -394 -201 -388 -211 3 -5 150 54 327 131 177 77
326 138 332 136 12 -4 -61 -47 -134 -80 -133 -58 -328 -183 -312 -199 5 -5 55
12 113 38 224 100 225 100 99 4 -71 -54 -125 -108 -117 -116 2 -2 64 33 138
77 277 168 757 381 860 383 53 1 92 -25 87 -58 -4 -25 -78 -63 -150 -76 -116
-22 -533 -249 -642 -348 -56 -53 -82 -152 -39 -152 9 0 123 52 253 115 130 63
251 118 268 121 24 5 38 2 52 -11 25 -23 39 -19 280 75 232 91 322 117 352
103 22 -10 21 -12 -27 -33 -27 -12 -131 -50 -230 -86 -227 -81 -225 -80 -225
-100 0 -13 6 -15 28 -9 15 4 72 15 127 26 123 23 185 43 250 79 28 15 82 39
120 53 79 28 301 80 318 74 18 -6 -88 -46 -178 -67 -98 -23 -132 -38 -192 -87
-30 -25 -65 -40 -119 -54 -87 -22 -106 -33 -102 -63 2 -17 10 -21 38 -20 50 1
148 44 227 98 71 48 163 78 134 42 -36 -43 17 -38 249 24 106 28 194 49 197
46 9 -8 -7 -26 -24 -26 -22 0 -237 -87 -298 -120 -40 -22 -67 -29 -135 -33
-93 -6 -275 -58 -284 -83 -3 -7 1 -20 9 -27 12 -12 48 -6 252 44 131 32 258
65 282 73 69 25 62 18 -24 -23 -102 -50 -158 -85 -149 -94 13 -12 52 -8 106
13 29 11 55 20 58 20 2 0 -17 -22 -44 -49 -44 -45 -46 -49 -31 -65 19 -18 32
-19 134 -6 139 18 189 61 232 200 20 66 44 116 59 125 5 3 3 -16 -6 -42 -24
-79 -26 -97 -11 -117 23 -31 43 -13 62 56 23 82 23 83 49 59 l23 -21 73 144
c70 136 136 243 146 234 2 -3 -6 -28 -18 -56 -20 -48 -21 -54 -6 -68 9 -9 21
-13 26 -10 6 4 30 44 53 89 23 45 46 88 51 95 16 19 31 14 24 -8 -21 -70 -22
-68 9 -40 15 14 61 76 102 138 40 61 76 112 78 112 17 0 -2 -49 -44 -112 -56
-83 -70 -118 -48 -118 20 0 77 65 115 132 75 131 207 240 416 344 141 70 197
84 297 73 69 -7 163 -50 246 -112 99 -74 98 -69 98 -377 0 -418 -31 -582 -139
-743 -30 -45 -62 -98 -70 -118 -20 -47 -23 -187 -8 -367 15 -174 18 -164 -134
-396 -58 -88 -143 -217 -188 -286 -54 -82 -95 -135 -123 -155 -73 -53 -53 -78
97 -120 51 -14 120 -40 154 -57 60 -30 251 -167 243 -174 -2 -2 -30 5 -63 16
-71 25 -174 37 -199 23 -15 -9 -9 -13 36 -28 30 -10 68 -24 84 -33 37 -18 98
-63 92 -68 -2 -2 -32 8 -67 22 -34 14 -69 23 -76 20 -31 -12 -10 -36 60 -70
89 -43 168 -112 207 -180 34 -60 116 -166 128 -166 5 0 14 7 21 15 11 13 11
21 0 43 -7 15 -23 60 -35 100 -15 48 -35 86 -59 112 -44 49 -46 62 -6 47 45
-17 54 -2 40 68 -6 31 -10 58 -8 60 8 8 128 -77 146 -103 64 -90 234 -388 205
-357 -6 6 -42 58 -81 116 -75 111 -112 153 -112 128 0 -21 160 -314 240 -439
49 -77 74 -128 83 -170 8 -33 13 -60 12 -60 -2 0 -26 42 -53 93 -118 220 -211
371 -218 354 -3 -10 -4 -31 -1 -47 9 -40 109 -258 161 -350 89 -154 137 -259
130 -285 -5 -20 -25 13 -115 193 -60 119 -114 217 -121 217 -9 0 -13 -15 -12
-45 1 -34 27 -105 112 -297 62 -138 112 -261 112 -272 0 -28 -17 -27 -25 2
-18 58 -169 397 -178 397 -21 0 3 -111 47 -225 47 -119 55 -161 16 -86 -20 40
-53 56 -62 29 -2 -6 13 -51 34 -99 20 -48 40 -100 44 -116 l6 -28 -25 30 -25
30 -7 -25 c-4 -18 8 -61 39 -143 25 -64 57 -157 72 -207 23 -82 24 -95 13
-147 -14 -67 -10 -72 -64 102 -20 66 -48 141 -62 167 -26 47 -63 90 -63 72 0
-6 22 -75 49 -154 58 -172 79 -272 28 -135 -55 147 -75 173 -57 74 15 -85 38
-310 50 -479 27 -407 36 -484 68 -590 15 -53 16 -54 23 -25 4 17 7 68 8 115 1
72 4 82 14 65 7 -11 14 -54 17 -95 4 -61 8 -75 23 -78 25 -5 44 48 53 141 4
42 10 77 14 77 4 0 10 -31 14 -69 5 -49 12 -71 22 -75 26 -10 31 0 37 81 5 65
9 80 29 95 13 10 26 18 30 18 3 0 6 -37 5 -81 -2 -75 0 -82 20 -89 13 -6 27
-4 38 4 15 11 19 35 23 158 5 156 -7 284 -38 415 -10 43 -17 79 -16 80 1 2 21
-15 44 -37 23 -22 50 -40 60 -40 19 0 19 2 1 78 -10 42 -19 91 -18 107 1 26 3
23 17 -20 10 -30 23 -50 32 -50 12 0 15 15 13 88 l-2 87 28 0 c25 0 30 -5 35
-34 4 -19 16 -46 28 -61 20 -26 22 -26 29 -9 4 10 8 35 8 55 1 20 7 42 15 48
8 7 17 23 20 37 9 33 22 23 30 -23 4 -21 16 -69 27 -106 16 -53 24 -68 37 -65
26 5 27 78 3 151 -32 100 -62 228 -59 251 3 13 12 -4 26 -49 38 -121 64 -177
75 -166 6 6 11 54 11 108 1 92 -2 104 -37 193 -39 95 -67 211 -67 276 0 62 18
35 46 -72 28 -103 46 -132 65 -103 16 26 9 69 -26 154 -24 58 -33 91 -27 101
7 12 12 4 22 -33 17 -62 26 -72 47 -51 20 21 19 98 -2 158 -21 60 -20 90 4 90
51 0 45 69 -19 215 -49 114 -52 126 -60 240 -12 161 -44 273 -120 425 -43 84
-277 482 -403 685 -277 444 -388 593 -556 745 -92 84 -105 111 -91 195 9 56
28 100 65 150 37 49 74 131 90 197 21 87 41 754 26 830 -56 267 -370 434 -646
344z m-5583 -4406 c22 -6 46 -23 58 -39 11 -16 40 -42 65 -58 68 -42 73 -102
13 -146 -23 -17 -50 -22 -159 -29 -139 -8 -224 -27 -274 -61 -16 -11 -69 -58
-116 -104 -75 -72 -91 -83 -121 -83 -36 0 -83 26 -146 81 -72 63 -239 128
-330 129 -22 0 -42 9 -59 26 -23 24 -25 31 -20 86 10 108 64 151 182 146 58
-3 87 -11 165 -48 87 -40 102 -44 170 -44 78 1 84 3 255 74 89 37 224 77 265
79 8 1 32 -4 52 -9z m-1132 -322 c28 -89 38 -109 79 -149 36 -37 61 -51 115
-68 120 -37 163 -78 180 -172 9 -49 46 -84 131 -124 67 -32 198 -136 231 -183
18 -26 15 -62 -6 -73 -47 -25 -196 -61 -271 -66 -153 -10 -348 32 -451 98 -79
51 -187 241 -215 376 -14 69 -14 84 0 156 9 44 28 104 42 134 26 51 113 172
126 173 4 0 21 -46 39 -102z m300 -97 c28 -14 44 -35 80 -107 25 -49 58 -107
73 -128 26 -38 36 -76 18 -76 -5 0 -29 42 -55 93 -25 50 -55 107 -66 125 -24
40 -83 68 -160 78 -55 7 -80 18 -80 36 0 16 150 -1 190 -21z m684 16 c28 -20
17 -51 -19 -55 -71 -6 -97 -15 -130 -43 -55 -49 -60 -125 -10 -175 19 -19 34
-24 78 -24 60 0 77 12 77 52 0 31 24 48 42 30 15 -15 -6 -86 -33 -113 -24 -24
-116 -26 -163 -4 -38 18 -55 44 -72 110 -22 81 -19 92 42 148 84 78 148 103
188 74z m1162 -898 c35 -6 68 -17 75 -25 11 -14 8 -105 -20 -579 -8 -139 -21
-148 -74 -48 -80 152 -134 348 -144 515 l-6 108 44 20 c52 23 46 23 125 9z
m-1093 -66 c19 -42 36 -116 37 -151 0 -19 -5 -23 -22 -20 -18 2 -26 13 -35 48
-13 53 -17 160 -5 160 5 0 16 -17 25 -37z m-556 -4 c94 -14 191 -47 203 -68
14 -26 -2 -71 -54 -155 -61 -98 -70 -137 -61 -273 7 -115 0 -138 -31 -113 -19
17 -133 251 -184 379 -43 108 -57 173 -46 215 9 36 27 38 173 15z m443 -4 c15
-40 24 -155 12 -155 -17 0 -59 56 -77 104 -14 37 -15 49 -5 61 20 24 59 19 70
-10z m659 11 c6 -7 20 -39 31 -70 21 -63 14 -108 -22 -127 -17 -9 -25 -7 -45
13 -31 32 -54 157 -33 182 15 20 54 21 69 2z m-373 -89 c19 -74 20 -89 8 -94
-31 -12 -68 44 -79 119 -8 54 -1 70 28 66 17 -2 25 -18 43 -91z m161 71 c5 -7
18 -44 28 -81 16 -62 16 -70 2 -84 -24 -24 -60 -9 -80 32 -17 35 -23 125 -10
138 11 12 50 8 60 -5z m2001 -559 c66 -16 72 -24 72 -84 0 -40 -12 -82 -46
-166 -51 -129 -101 -294 -135 -449 -20 -92 -23 -143 -28 -415 -5 -269 -9 -314
-24 -342 -21 -40 -45 -53 -94 -53 -44 0 -84 24 -189 112 -70 60 -142 92 -191
86 l-28 -3 -3 -93 c-2 -62 4 -135 18 -214 25 -145 19 -174 -43 -219 -122 -89
-279 -75 -391 35 -54 52 -136 169 -157 223 -11 27 -23 155 -53 565 -13 173
-13 216 0 350 17 185 34 226 109 277 48 32 53 33 117 28 91 -8 150 -35 171
-79 14 -29 16 -73 15 -299 -1 -250 0 -271 26 -397 34 -167 63 -262 80 -262 11
0 11 10 0 58 -23 98 -18 293 16 519 48 329 57 372 94 448 34 69 115 161 181
206 77 52 293 149 374 168 51 12 56 12 109 0z m-395 -1611 c178 -127 277 -175
394 -193 47 -7 58 -30 47 -93 -23 -125 -145 -223 -243 -193 -151 45 -332 335
-366 586 l-7 50 37 -43 c20 -23 82 -75 138 -114z m-1113 -121 c47 -19 119 -42
160 -52 100 -22 138 -40 152 -70 15 -33 0 -65 -48 -101 -33 -26 -46 -29 -108
-29 -69 0 -73 1 -132 47 -89 68 -173 166 -260 302 -19 29 -18 29 66 -16 47
-26 123 -62 170 -81z m980 -284 c98 -34 111 -46 77 -68 -26 -16 -26 -17 -9
-51 18 -40 9 -67 -25 -72 -34 -5 -153 151 -153 201 0 24 22 22 110 -10z m-320
-54 c35 -35 50 -58 48 -73 -3 -24 -41 -34 -63 -16 -26 21 -86 120 -80 130 13
22 46 8 95 -41z m191 -66 c42 -46 48 -63 22 -63 -31 0 -95 54 -124 105 -16 27
-29 54 -29 58 0 14 89 -55 131 -100z"/>
<path d="M15104 23902 c-34 -10 -81 -30 -105 -44 -57 -33 -189 -155 -189 -174
0 -23 25 -27 57 -10 25 13 109 36 218 61 72 16 0 -17 -150 -70 -88 -30 -165
-61 -173 -68 -16 -16 -6 -47 15 -47 9 0 79 20 157 46 77 25 161 48 186 51 74
9 35 -12 -75 -42 -113 -31 -155 -49 -155 -70 0 -25 18 -26 97 -6 90 22 171 36
162 27 -3 -3 -61 -28 -130 -56 -68 -29 -128 -55 -133 -60 -4 -4 2 -14 15 -21
23 -12 23 -13 -21 -24 -63 -15 -60 -38 5 -45 l50 -5 -40 -16 c-22 -9 -61 -22
-87 -29 -26 -7 -55 -21 -64 -31 -17 -18 -16 -19 28 -19 25 0 92 5 148 10 56 6
104 9 107 7 2 -3 -48 -17 -111 -32 -98 -22 -116 -29 -116 -46 0 -24 21 -24
144 -4 49 8 91 13 93 11 8 -8 -103 -39 -211 -61 -96 -18 -111 -24 -111 -41 0
-17 7 -19 60 -17 56 2 147 22 258 57 26 8 47 13 47 11 0 -3 -27 -18 -60 -35
-64 -32 -166 -63 -273 -81 -69 -11 -87 -23 -69 -41 19 -19 235 19 440 78 36
10 27 -24 -11 -39 -54 -23 -338 -89 -402 -94 -96 -7 -107 -11 -103 -36 3 -21
7 -22 93 -20 50 1 134 11 189 22 54 12 105 21 113 21 31 0 -2 -21 -83 -52 -88
-33 -105 -48 -85 -72 12 -15 60 -9 154 19 68 20 74 19 47 -9 -13 -15 -20 -32
-17 -40 8 -20 15 -20 60 -1 20 8 46 15 58 15 19 0 16 -4 -17 -31 -22 -17 -56
-40 -77 -51 -34 -17 -38 -23 -35 -51 2 -26 7 -31 23 -29 53 9 60 7 63 -16 5
-30 -35 -46 -163 -64 -121 -18 -344 -81 -302 -86 15 -2 59 1 97 7 38 6 93 11
122 11 50 -1 52 -2 33 -16 -49 -38 -115 -58 -298 -89 -53 -9 -95 -21 -91 -26
3 -5 63 -9 134 -9 71 0 131 -4 134 -9 9 -14 -118 -32 -218 -31 -121 2 -116 3
-116 -19 0 -40 100 -55 242 -35 60 8 129 14 151 12 l42 -3 -48 -22 c-26 -12
-74 -30 -105 -40 -58 -18 -75 -30 -65 -46 14 -22 217 29 276 70 97 67 319 326
414 483 29 47 74 112 102 145 122 145 131 177 112 407 -6 84 -18 236 -26 337
-10 133 -19 190 -30 208 -22 33 -216 124 -275 129 -25 2 -72 -4 -106 -14z"/>
<path d="M11921 22804 c-67 -33 -201 -144 -201 -165 0 -5 19 -6 43 -3 40 7 32
-2 -173 -165 -118 -95 -223 -181 -232 -193 -10 -11 -18 -33 -18 -48 0 -23 -22
-49 -121 -142 -66 -62 -129 -127 -140 -144 -42 -68 -15 -57 74 30 91 88 208
181 177 141 -8 -11 -51 -59 -97 -106 -104 -108 -133 -166 -133 -264 0 -57 -6
-82 -31 -135 -41 -88 -100 -161 -163 -205 -57 -39 -264 -123 -373 -150 -85
-22 -215 -23 -264 -3 -78 33 -138 109 -153 190 -17 96 46 263 153 405 66 87
231 251 334 332 68 54 103 101 93 127 -14 36 -227 2 -329 -53 -171 -93 -335
-345 -366 -564 -30 -215 74 -440 239 -518 53 -25 63 -26 230 -26 188 -1 213
-6 224 -49 19 -75 -89 -169 -359 -313 -142 -76 -387 -226 -405 -249 -7 -7 -9
-21 -6 -30 7 -19 22 -17 120 20 79 30 476 103 611 112 92 7 164 32 210 74 75
68 121 73 324 35 286 -53 405 -22 572 152 88 91 151 171 201 256 26 42 55 78
75 90 39 22 45 65 14 96 -17 17 -31 19 -142 14 -101 -4 -128 -2 -144 10 -19
15 -18 16 25 36 25 11 65 21 90 21 59 0 131 42 214 123 102 100 209 277 168
277 -13 0 -56 -33 -76 -60 -35 -45 -99 -101 -179 -156 -83 -57 -97 -63 -97
-40 0 23 -19 29 -43 13 -13 -8 -37 -12 -58 -10 -33 4 -39 1 -77 -44 -46 -55
-115 -107 -133 -101 -8 3 2 20 24 45 39 43 48 73 21 73 -9 0 -43 -23 -75 -51
-87 -75 -207 -142 -365 -204 -77 -30 -162 -69 -188 -86 -27 -16 -51 -28 -54
-25 -9 10 26 86 83 181 l56 92 35 204 c39 227 64 297 118 330 37 22 53 25 37
5 -12 -14 -33 -76 -26 -76 2 0 32 20 67 44 86 60 256 156 356 201 45 21 82 44
82 51 0 17 4 18 -65 -6 -32 -11 -60 -19 -61 -17 -2 2 28 19 67 37 88 43 97 52
70 79 -12 12 -21 25 -21 29 0 5 24 18 54 31 30 12 62 31 71 42 18 18 17 19
-11 19 -16 0 -58 -7 -94 -14 -36 -8 -66 -13 -67 -12 -2 2 36 29 84 62 68 46
83 60 66 62 -11 2 -48 -8 -82 -22 -33 -14 -75 -26 -93 -26 l-33 0 25 21 c14
11 78 60 142 109 113 85 131 109 72 94 -24 -6 -25 -5 -15 15 7 11 15 21 20 21
12 0 90 70 101 91 15 27 3 24 -79 -17z m-212 -1583 c107 -22 131 -38 112 -74
-20 -37 -108 -136 -159 -179 -147 -122 -335 -153 -432 -71 -26 21 -30 32 -30
74 0 53 24 114 41 104 5 -4 18 -23 29 -44 26 -51 66 -68 122 -52 63 19 115 81
68 81 -28 0 -60 35 -60 65 0 14 10 36 23 49 13 13 21 28 19 34 -4 13 66 30
128 31 25 0 87 -8 139 -18z"/>
<path d="M13476 13518 c-73 -120 -303 -442 -1120 -1563 -280 -385 -567 -781
-638 -880 -197 -274 -258 -328 -461 -410 -55 -22 -83 -39 -89 -54 l-7 -21 359
0 c197 0 361 4 364 9 3 4 -5 13 -18 19 -44 20 -95 73 -112 117 -22 60 -16 174
14 231 11 23 71 107 132 188 l111 146 399 0 c244 0 400 -4 400 -9 0 -6 -20
-97 -45 -203 -73 -308 -101 -348 -293 -417 -81 -29 -112 -50 -112 -75 0 -3
229 -6 509 -6 487 0 509 1 514 19 3 13 -9 28 -42 52 -25 19 -54 51 -65 73 -42
86 -39 300 7 501 13 55 168 609 345 1232 177 622 322 1139 322 1147 0 14 -25
16 -203 16 l-203 0 -68 -112z m-320 -1073 c-118 -369 -239 -750 -270 -847
l-57 -178 -252 1 c-139 1 -298 4 -354 8 l-101 6 620 843 c342 463 623 841 624
839 2 -1 -93 -304 -210 -672z"/>
<path d="M17220 13595 c0 -18 9 -29 38 -44 107 -55 161 -174 142 -312 -7 -51
-632 -2143 -668 -2234 -51 -132 -176 -262 -319 -331 -83 -41 -103 -57 -103
-85 0 -5 330 -9 824 -9 650 0 825 3 829 13 3 6 96 228 207 492 111 264 206
490 211 503 7 19 5 22 -15 22 -21 0 -45 -37 -182 -272 -86 -150 -171 -293
-187 -318 -96 -146 -276 -270 -443 -305 -99 -21 -479 -21 -471 -1 3 8 76 250
162 538 86 288 170 567 186 621 l30 97 232 0 232 0 158 315 c86 173 157 317
157 320 0 3 -10 5 -22 5 -18 0 -52 -37 -143 -151 -66 -83 -146 -175 -179 -205
-67 -61 -187 -127 -272 -149 -63 -16 -124 -20 -124 -7 0 4 94 323 209 707
l209 700 133 3 c272 6 390 -42 460 -184 37 -75 37 -76 29 -504 l-5 -265 22 -3
c16 -2 22 3 27 25 13 64 176 1016 176 1029 0 12 -111 14 -770 14 l-770 0 0
-25z"/>
<path d="M5990 13601 c0 -5 -2 -16 -6 -24 -3 -9 6 -19 25 -27 46 -19 106 -90
126 -150 39 -116 46 -93 -368 -1165 -206 -533 -382 -1001 -391 -1038 -53 -214
-18 -376 109 -503 113 -114 249 -163 471 -171 230 -9 398 27 594 128 52 27
124 71 160 98 140 106 285 282 368 446 16 33 132 330 257 660 581 1535 526
1403 643 1521 70 70 157 130 241 165 41 17 68 35 73 48 l7 21 -363 0 c-323 0
-365 -2 -370 -16 -10 -26 -7 -31 24 -44 48 -20 108 -96 126 -159 34 -114 38
-100 -350 -1126 -196 -517 -376 -980 -401 -1030 -197 -399 -539 -624 -875
-577 -181 26 -263 102 -291 272 -14 85 -1 218 32 326 39 127 720 1898 757
1969 67 127 232 269 374 321 28 11 51 27 57 41 l11 23 -520 0 c-309 0 -520 -4
-520 -9z"/>
<path d="M8377 13588 c-4 -12 -5 -23 -4 -23 136 -75 174 -141 164 -289 -4 -77
-24 -132 -421 -1185 -259 -688 -430 -1126 -452 -1163 -71 -117 -205 -228 -341
-283 -56 -23 -87 -50 -77 -66 3 -5 167 -9 364 -9 345 0 360 1 370 19 14 28 14
29 -27 50 -89 45 -136 134 -136 251 0 74 3 85 377 1080 208 553 381 1008 384
1012 4 4 119 -529 255 -1185 137 -656 251 -1200 254 -1210 4 -15 14 -17 60
-15 37 2 59 8 65 18 4 8 222 593 484 1300 261 707 489 1311 506 1342 63 119
194 235 341 303 63 29 87 49 87 71 0 2 -162 4 -359 4 -359 0 -360 0 -366 -21
-5 -14 -2 -25 6 -30 110 -62 159 -145 159 -266 0 -26 -5 -66 -11 -88 -6 -22
-151 -416 -321 -875 -171 -459 -315 -848 -320 -863 -6 -15 -12 -26 -14 -24 -3
2 -444 2152 -444 2163 0 2 -130 4 -289 4 l-289 0 -5 -22z"/>
<path d="M10619 13345 c-424 -869 -390 -795 -364 -795 19 0 54 48 221 308 205
319 240 368 308 434 89 87 247 174 354 197 49 10 202 16 202 7 0 -2 -207 -568
-460 -1257 -263 -716 -474 -1276 -492 -1307 -71 -118 -215 -241 -345 -292 -32
-13 -61 -29 -65 -34 -25 -36 -19 -36 511 -36 510 0 520 0 526 20 7 23 -1 40
-19 40 -22 0 -96 71 -118 114 -16 30 -23 64 -25 126 -5 102 -55 -46 507 1495
l415 1137 100 -5 c113 -4 162 -23 228 -86 94 -89 101 -137 71 -500 -30 -367
-30 -363 -2 -359 21 3 31 38 143 503 67 275 124 512 128 528 l7 27 -850 0
-851 0 -130 -265z"/>
<path d="M14526 13594 c-10 -25 -7 -30 18 -42 112 -51 176 -201 144 -337 -24
-99 -767 -2184 -805 -2257 -66 -126 -222 -267 -350 -314 -60 -22 -73 -32 -73
-55 0 -18 14 -19 360 -19 345 0 360 1 370 19 14 28 14 29 -22 47 -46 23 -96
72 -121 119 -18 33 -22 56 -22 135 l1 95 313 880 c172 484 345 971 384 1083
40 111 73 197 74 190 2 -7 -44 -568 -100 -1245 l-103 -1233 61 0 61 0 769
1240 c423 681 770 1238 772 1237 7 -7 -744 -2133 -774 -2189 -67 -127 -216
-261 -346 -310 -48 -18 -77 -40 -77 -60 0 -4 236 -8 524 -8 l524 0 6 23 c3 12
1 24 -4 25 -41 14 -107 75 -134 122 -29 52 -31 61 -31 155 l1 100 381 1091
c209 600 393 1114 407 1142 62 121 184 233 332 303 54 26 83 46 87 59 5 20 1
20 -362 20 l-367 0 -655 -1059 c-360 -582 -655 -1053 -657 -1046 -3 11 152
1971 163 2063 l5 42 -374 0 c-332 0 -375 -2 -380 -16z"/>
<path d="M19077 13590 c-4 -17 1 -25 26 -38 18 -10 51 -36 73 -58 57 -57 77
-121 72 -227 -4 -77 -28 -153 -375 -1173 -204 -600 -379 -1106 -388 -1125 -67
-132 -183 -242 -331 -313 -63 -31 -93 -52 -97 -66 l-6 -22 542 5 c581 5 618 8
843 66 653 168 1200 643 1460 1269 141 339 197 675 155 922 -58 334 -273 587
-594 699 -208 73 -223 74 -828 78 l-546 4 -6 -21z m921 -100 c213 -23 389 -93
510 -206 107 -99 161 -199 198 -368 23 -104 21 -331 -5 -476 -74 -420 -277
-855 -545 -1167 -250 -291 -559 -475 -927 -553 -118 -25 -389 -40 -389 -22 0
6 212 637 470 1403 259 765 470 1393 470 1395 0 7 126 4 218 -6z"/>
<path d="M9410 10169 c-530 -60 -956 -345 -1198 -799 -233 -437 -238 -1070
-11 -1521 136 -271 387 -522 659 -659 433 -218 1026 -221 1479 -9 183 86 406
264 529 424 42 53 48 69 64 155 22 122 22 130 -1 130 -13 0 -32 -23 -60 -70
-129 -217 -329 -380 -555 -455 -334 -109 -765 -49 -1131 157 -455 257 -772
609 -900 1002 -45 140 -60 231 -59 376 1 157 26 266 93 405 136 284 364 475
660 552 141 37 370 43 537 15 526 -90 1095 -503 1339 -973 42 -82 61 -109 76
-109 24 0 24 -5 -1 755 -11 325 -20 593 -20 598 0 4 -10 7 -23 7 -20 0 -35
-24 -112 -179 l-88 -179 -66 53 c-231 186 -499 291 -821 325 -111 11 -284 11
-390 -1z"/>
<path d="M11160 10088 c0 -18 13 -29 60 -51 84 -39 153 -110 198 -204 l37 -78
3 -1142 c2 -1137 2 -1143 -19 -1205 -11 -34 -37 -86 -57 -116 -38 -58 -129
-133 -187 -154 -26 -9 -35 -18 -35 -35 l0 -23 827 2 827 3 63 425 c34 234 62
433 62 443 1 11 -6 17 -21 17 -21 0 -30 -22 -103 -237 -44 -131 -95 -262 -113
-293 -69 -117 -216 -217 -352 -239 -36 -6 -152 -11 -258 -11 l-192 0 2 1283 3
1282 32 68 c41 87 117 167 199 209 50 26 64 38 64 56 l0 22 -520 0 -520 0 0
-22z"/>
<path d="M13010 10090 c0 -14 16 -28 53 -46 76 -39 135 -90 178 -156 77 -120
72 -42 73 -1183 1 -1153 -5 -1060 83 -1245 39 -81 58 -107 132 -180 179 -176
394 -255 686 -253 378 2 647 168 760 467 54 145 55 157 55 1211 0 591 4 992
10 1024 24 125 113 244 230 305 50 27 70 43 70 57 0 18 -10 19 -370 19 -362 0
-370 0 -370 -20 0 -14 17 -28 62 -51 119 -60 213 -185 237 -314 14 -77 15
-1830 1 -1965 -33 -316 -183 -522 -427 -585 -73 -19 -220 -19 -302 0 -192 46
-329 201 -394 445 l-22 85 0 1025 0 1025 32 68 c41 87 117 167 199 209 50 26
64 38 64 56 l0 22 -520 0 c-512 0 -520 0 -520 -20z"/>
<path d="M15450 10091 c0 -14 19 -30 70 -56 122 -65 210 -186 228 -317 6 -37
7 -522 3 -1178 l-6 -1115 -32 -68 c-42 -89 -116 -166 -198 -206 -47 -23 -65
-38 -65 -52 0 -19 12 -19 509 -19 549 0 637 6 837 54 233 57 415 151 563 291
92 87 161 191 195 293 105 319 16 620 -248 828 -132 105 -337 199 -514 235
-34 7 -62 16 -62 19 0 4 22 12 50 18 155 36 330 131 434 236 109 110 156 220
156 371 0 147 -45 258 -149 367 -134 143 -319 235 -578 290 -103 21 -133 22
-650 26 -538 3 -543 3 -543 -17z m1035 -112 c136 -25 278 -102 369 -200 186
-200 183 -526 -7 -719 -130 -132 -288 -193 -534 -206 l-123 -7 0 578 0 578
118 -6 c64 -4 144 -12 177 -18z m40 -1266 c283 -53 506 -236 589 -485 49 -144
53 -354 10 -498 -35 -118 -117 -243 -216 -328 -148 -127 -339 -194 -596 -208
l-122 -7 0 778 0 778 128 -7 c70 -4 163 -14 207 -23z"/>
</g>
</svg>
